<!-- Generated by IcoMoon.io -->
<svg version="1.1" xmlns="http://www.w3.org/2000/svg" xmlns:xlink="http://www.w3.org/1999/xlink" width="272" height="32" viewBox="0 0 272 32" display="none">
<defs>
<g id="icon-embed">
  <path class="path1" d="M9 8l-8 8 8 8h4l-8-8 8-8h-4zM23 8h-4l8 8-8 8h4l8-8-8-8z" />
</g>
<g id="icon-code">
  <path class="path1" d="M4 16l8-8h-4l-8 8 8 8h4zM24 8h-4l8 8-8 8h4l8-8zM17 4l-5 24h3l5-24z" />
</g>
<g id="icon-googleplus">
  <path class="path1" d="M17.471 2c0 0-6.28 0-8.373 0-3.754 0-7.287 2.844-7.287 6.138 0 3.366 2.559 6.083 6.378 6.083 0.266 0 0.524-0.005 0.776-0.024-0.248 0.475-0.425 1.009-0.425 1.564 0 0.936 0.503 1.694 1.14 2.313-0.481 0-0.945 0.014-1.452 0.014-4.649-0-8.228 2.961-8.228 6.032 0 3.024 3.923 4.916 8.573 4.916 5.301 0 8.228-3.008 8.228-6.032 0-2.425-0.715-3.877-2.928-5.442-0.757-0.536-2.204-1.839-2.204-2.604 0-0.897 0.256-1.34 1.607-2.395 1.385-1.082 2.365-2.603 2.365-4.372 0-2.106-0.938-4.159-2.699-4.837h2.655l1.874-1.355zM14.546 22.483c0.066 0.28 0.103 0.569 0.103 0.863 0 2.444-1.575 4.353-6.093 4.353-3.214 0-5.535-2.035-5.535-4.478 0-2.395 2.879-4.389 6.093-4.354 0.75 0.008 1.449 0.129 2.083 0.334 1.745 1.213 2.996 1.899 3.349 3.281zM9.401 13.368c-2.157-0.065-4.207-2.413-4.58-5.246-0.372-2.833 1.074-5.001 3.231-4.937 2.157 0.065 4.207 2.338 4.58 5.171 0.372 2.833-1.075 5.077-3.231 5.012zM26 8v-6h-2v6h-6v2h6v6h2v-6h6v-2z" />
</g>
<g id="icon-twitter">
  <path class="path1" d="M32 6.076c-1.177 0.522-2.443 0.875-3.771 1.034 1.355-0.813 2.396-2.099 2.887-3.632-1.269 0.752-2.674 1.299-4.169 1.593-1.198-1.276-2.904-2.073-4.792-2.073-3.626 0-6.565 2.939-6.565 6.565 0 0.515 0.058 1.016 0.17 1.496-5.456-0.274-10.294-2.888-13.532-6.86-0.565 0.97-0.889 2.097-0.889 3.301 0 2.278 1.159 4.287 2.921 5.465-1.076-0.034-2.088-0.329-2.974-0.821-0.001 0.027-0.001 0.055-0.001 0.083 0 3.181 2.263 5.834 5.266 6.437-0.551 0.15-1.131 0.23-1.73 0.23-0.423 0-0.834-0.041-1.235-0.118 0.835 2.608 3.26 4.506 6.133 4.559-2.247 1.761-5.078 2.81-8.154 2.81-0.53 0-1.052-0.031-1.566-0.092 2.905 1.863 6.356 2.95 10.064 2.95 12.076 0 18.679-10.004 18.679-18.68 0-0.285-0.006-0.568-0.019-0.849 1.283-0.926 2.396-2.082 3.276-3.398z" />
</g>
<g id="icon-github">
  <path class="path1" d="M16 25.997c-0.599 0-1.197-0.31-1.817-0.93-0.244-0.244-0.244-0.64 0-0.884 0.244-0.244 0.64-0.244 0.884 0 0.381 0.382 0.687 0.567 0.933 0.567 0.246 0 0.552-0.185 0.933-0.567 0.244-0.244 0.64-0.244 0.884 0 0.244 0.244 0.244 0.64 0 0.884-0.62 0.62-1.218 0.93-1.817 0.93zM0 16.422c0 1.559 0.133 2.973 0.4 4.24 0.267 1.267 0.642 2.367 1.125 3.298 0.483 0.931 1.094 1.747 1.833 2.448 0.739 0.701 1.542 1.279 2.408 1.733 0.867 0.454 1.858 0.822 2.975 1.102 1.117 0.28 2.253 0.477 3.408 0.589 1.156 0.112 2.428 0.168 3.817 0.168 1.389 0 2.664-0.056 3.825-0.168 1.161-0.112 2.3-0.308 3.417-0.589 1.117-0.28 2.111-0.648 2.983-1.102 0.872-0.454 1.681-1.032 2.425-1.733 0.744-0.701 1.358-1.517 1.842-2.448 0.483-0.931 0.861-2.030 1.133-3.298 0.272-1.268 0.408-2.681 0.408-4.24 0-2.793-0.867-5.199-2.6-7.218 0.1-0.269 0.186-0.578 0.258-0.925 0.072-0.348 0.142-0.838 0.208-1.472 0.067-0.634 0.042-1.366-0.075-2.196-0.117-0.83-0.336-1.677-0.658-2.541l-0.25-0.051c-0.167-0.034-0.439-0.022-0.817 0.034-0.378 0.056-0.819 0.157-1.325 0.303-0.506 0.146-1.158 0.435-1.958 0.867-0.8 0.432-1.644 0.979-2.533 1.641-1.511-0.46-3.594-0.941-6.25-0.941-2.655 0-4.744 0.481-6.267 0.941-0.889-0.662-1.736-1.206-2.542-1.632-0.806-0.426-1.45-0.718-1.933-0.875-0.483-0.157-0.931-0.258-1.342-0.303-0.411-0.045-0.675-0.059-0.792-0.042-0.117 0.017-0.203 0.036-0.258 0.059-0.322 0.864-0.544 1.711-0.667 2.541-0.122 0.83-0.15 1.559-0.083 2.187 0.067 0.628 0.139 1.122 0.217 1.481 0.078 0.359 0.167 0.667 0.267 0.925-1.733 2.008-2.6 4.414-2.6 7.218zM4.267 19.981c0-1.813 0.667-3.457 2-4.933 0.4-0.45 0.864-0.791 1.392-1.022 0.528-0.231 1.128-0.363 1.8-0.394 0.672-0.031 1.314-0.025 1.925 0.019 0.611 0.044 1.367 0.103 2.267 0.178 0.9 0.075 1.678 0.113 2.333 0.113 0.655 0 1.433-0.037 2.333-0.113 0.9-0.075 1.656-0.134 2.267-0.178 0.611-0.044 1.253-0.050 1.925-0.019 0.672 0.031 1.275 0.163 1.808 0.394 0.533 0.231 1 0.572 1.4 1.022 1.333 1.476 2 3.12 2 4.933 0 1.063-0.111 2.010-0.333 2.842-0.222 0.832-0.503 1.529-0.842 2.091-0.339 0.563-0.814 1.038-1.425 1.426-0.611 0.388-1.203 0.688-1.775 0.9-0.572 0.212-1.311 0.378-2.217 0.497-0.906 0.119-1.717 0.191-2.433 0.216-0.717 0.025-1.619 0.038-2.708 0.038-1.089 0-1.989-0.013-2.7-0.038-0.711-0.025-1.519-0.097-2.425-0.216-0.906-0.119-1.644-0.285-2.217-0.497-0.572-0.213-1.164-0.513-1.775-0.9-0.611-0.388-1.086-0.863-1.425-1.426-0.339-0.563-0.62-1.26-0.842-2.091-0.222-0.832-0.333-1.779-0.333-2.842zM8 19c0-1.657 0.895-3 2-3s2 1.343 2 3c0 1.657-0.895 3-2 3-1.105 0-2-1.343-2-3zM20 19c0-1.657 0.895-3 2-3s2 1.343 2 3c0 1.657-0.895 3-2 3-1.105 0-2-1.343-2-3z" />
</g>
<g id="icon-stackoverflow">
  <path class="path1" d="M32 20v12h-32v-12h4v8h24v-8zM6 22h20v4h-20zM6.473 17.671l0.866-3.905 19.526 4.328-0.866 3.905zM8.739 9.642l1.69-3.625 18.126 8.452-1.69 3.625zM30.991 11.296l-2.435 3.173-15.867-12.175 1.761-2.294h1.82z" />
</g>
</defs>
</svg>
